<mxfile host="app.diagrams.net" agent="Mozilla/5.0 (Macintosh; Intel Mac OS X 10_15_7) AppleWebKit/537.36 (KHTML, like Gecko) Chrome/127.0.0.0 Safari/537.36" version="24.7.7">
  <diagram id="C5RBs43oDa-KdzZeNtuy" name="Page-1">
    <mxGraphModel dx="1468" dy="812" grid="1" gridSize="10" guides="1" tooltips="1" connect="1" arrows="1" fold="1" page="1" pageScale="1" pageWidth="827" pageHeight="1169" background="none" math="0" shadow="0">
      <root>
        <mxCell id="WIyWlLk6GJQsqaUBKTNV-0" />
        <mxCell id="WIyWlLk6GJQsqaUBKTNV-1" parent="WIyWlLk6GJQsqaUBKTNV-0" />
        <mxCell id="lYG3xDOw-mOF29yi0zcu-2" style="edgeStyle=orthogonalEdgeStyle;rounded=0;orthogonalLoop=1;jettySize=auto;html=1;exitX=0.5;exitY=1;exitDx=0;exitDy=0;exitPerimeter=0;entryX=0.5;entryY=0;entryDx=0;entryDy=0;" edge="1" parent="WIyWlLk6GJQsqaUBKTNV-1" source="lYG3xDOw-mOF29yi0zcu-0" target="lYG3xDOw-mOF29yi0zcu-1">
          <mxGeometry relative="1" as="geometry" />
        </mxCell>
        <mxCell id="lYG3xDOw-mOF29yi0zcu-5" value="loads" style="edgeLabel;html=1;align=center;verticalAlign=middle;resizable=0;points=[];" vertex="1" connectable="0" parent="lYG3xDOw-mOF29yi0zcu-2">
          <mxGeometry x="-0.2783" relative="1" as="geometry">
            <mxPoint as="offset" />
          </mxGeometry>
        </mxCell>
        <mxCell id="lYG3xDOw-mOF29yi0zcu-0" value="Open Smart Irrigation Control Web App" style="strokeWidth=2;html=1;shape=mxgraph.flowchart.terminator;whiteSpace=wrap;fillColor=#dae8fc;strokeColor=#6c8ebf;" vertex="1" parent="WIyWlLk6GJQsqaUBKTNV-1">
          <mxGeometry x="345" y="80" width="110" height="60" as="geometry" />
        </mxCell>
        <mxCell id="lYG3xDOw-mOF29yi0zcu-1" value="" style="verticalLabelPosition=bottom;verticalAlign=top;html=1;shape=process;whiteSpace=wrap;rounded=1;size=0.14;arcSize=6;fillColor=#dae8fc;strokeColor=#6c8ebf;" vertex="1" parent="WIyWlLk6GJQsqaUBKTNV-1">
          <mxGeometry x="320" y="190" width="160" height="60" as="geometry" />
        </mxCell>
        <mxCell id="lYG3xDOw-mOF29yi0zcu-3" value="index.html&lt;div&gt;Display Main Menu&lt;/div&gt;&lt;div&gt;return menu option&lt;/div&gt;" style="text;html=1;align=center;verticalAlign=middle;whiteSpace=wrap;rounded=0;" vertex="1" parent="WIyWlLk6GJQsqaUBKTNV-1">
          <mxGeometry x="340" y="205" width="120" height="30" as="geometry" />
        </mxCell>
        <mxCell id="lYG3xDOw-mOF29yi0zcu-48" style="edgeStyle=orthogonalEdgeStyle;rounded=0;orthogonalLoop=1;jettySize=auto;html=1;exitX=0.5;exitY=1;exitDx=0;exitDy=0;entryX=0.5;entryY=0;entryDx=0;entryDy=0;" edge="1" parent="WIyWlLk6GJQsqaUBKTNV-1" source="lYG3xDOw-mOF29yi0zcu-8" target="lYG3xDOw-mOF29yi0zcu-45">
          <mxGeometry relative="1" as="geometry" />
        </mxCell>
        <mxCell id="lYG3xDOw-mOF29yi0zcu-8" value="" style="verticalLabelPosition=bottom;verticalAlign=top;html=1;shape=process;whiteSpace=wrap;rounded=1;size=0.14;arcSize=6;fillColor=#dae8fc;strokeColor=#6c8ebf;" vertex="1" parent="WIyWlLk6GJQsqaUBKTNV-1">
          <mxGeometry x="560" y="600" width="100" height="50" as="geometry" />
        </mxCell>
        <mxCell id="lYG3xDOw-mOF29yi0zcu-11" value="Load Sensor Data" style="text;html=1;align=center;verticalAlign=middle;whiteSpace=wrap;rounded=0;" vertex="1" parent="WIyWlLk6GJQsqaUBKTNV-1">
          <mxGeometry x="580" y="610" width="60" height="30" as="geometry" />
        </mxCell>
        <mxCell id="lYG3xDOw-mOF29yi0zcu-38" style="edgeStyle=orthogonalEdgeStyle;rounded=0;orthogonalLoop=1;jettySize=auto;html=1;" edge="1" parent="WIyWlLk6GJQsqaUBKTNV-1" source="lYG3xDOw-mOF29yi0zcu-21" target="lYG3xDOw-mOF29yi0zcu-36">
          <mxGeometry relative="1" as="geometry" />
        </mxCell>
        <mxCell id="lYG3xDOw-mOF29yi0zcu-40" value="Yes" style="edgeLabel;html=1;align=center;verticalAlign=middle;resizable=0;points=[];" vertex="1" connectable="0" parent="lYG3xDOw-mOF29yi0zcu-38">
          <mxGeometry x="-0.2296" y="-1" relative="1" as="geometry">
            <mxPoint as="offset" />
          </mxGeometry>
        </mxCell>
        <mxCell id="lYG3xDOw-mOF29yi0zcu-21" value="" style="strokeWidth=2;html=1;shape=mxgraph.flowchart.decision;whiteSpace=wrap;fillColor=#dae8fc;strokeColor=#6c8ebf;" vertex="1" parent="WIyWlLk6GJQsqaUBKTNV-1">
          <mxGeometry x="320" y="380" width="160" height="100" as="geometry" />
        </mxCell>
        <mxCell id="lYG3xDOw-mOF29yi0zcu-27" value="Manual Mode Selected" style="text;html=1;align=center;verticalAlign=middle;whiteSpace=wrap;rounded=0;" vertex="1" parent="WIyWlLk6GJQsqaUBKTNV-1">
          <mxGeometry x="370" y="415" width="60" height="30" as="geometry" />
        </mxCell>
        <mxCell id="lYG3xDOw-mOF29yi0zcu-44" style="edgeStyle=orthogonalEdgeStyle;rounded=0;orthogonalLoop=1;jettySize=auto;html=1;exitX=0.5;exitY=1;exitDx=0;exitDy=0;exitPerimeter=0;entryX=0.5;entryY=0;entryDx=0;entryDy=0;" edge="1" parent="WIyWlLk6GJQsqaUBKTNV-1" source="lYG3xDOw-mOF29yi0zcu-28" target="lYG3xDOw-mOF29yi0zcu-8">
          <mxGeometry relative="1" as="geometry" />
        </mxCell>
        <mxCell id="lYG3xDOw-mOF29yi0zcu-28" value="" style="strokeWidth=2;html=1;shape=mxgraph.flowchart.decision;whiteSpace=wrap;fillColor=#dae8fc;strokeColor=#6c8ebf;" vertex="1" parent="WIyWlLk6GJQsqaUBKTNV-1">
          <mxGeometry x="530" y="445" width="160" height="100" as="geometry" />
        </mxCell>
        <mxCell id="lYG3xDOw-mOF29yi0zcu-29" value="Smart Mode Selected" style="text;html=1;align=center;verticalAlign=middle;whiteSpace=wrap;rounded=0;" vertex="1" parent="WIyWlLk6GJQsqaUBKTNV-1">
          <mxGeometry x="580" y="480" width="60" height="30" as="geometry" />
        </mxCell>
        <mxCell id="lYG3xDOw-mOF29yi0zcu-30" style="edgeStyle=orthogonalEdgeStyle;rounded=0;orthogonalLoop=1;jettySize=auto;html=1;entryX=0.5;entryY=0;entryDx=0;entryDy=0;entryPerimeter=0;exitX=1;exitY=0.5;exitDx=0;exitDy=0;exitPerimeter=0;" edge="1" parent="WIyWlLk6GJQsqaUBKTNV-1" source="lYG3xDOw-mOF29yi0zcu-21" target="lYG3xDOw-mOF29yi0zcu-28">
          <mxGeometry relative="1" as="geometry">
            <Array as="points">
              <mxPoint x="610" y="430" />
            </Array>
          </mxGeometry>
        </mxCell>
        <mxCell id="lYG3xDOw-mOF29yi0zcu-31" value="No" style="edgeLabel;html=1;align=center;verticalAlign=middle;resizable=0;points=[];" vertex="1" connectable="0" parent="lYG3xDOw-mOF29yi0zcu-30">
          <mxGeometry x="-0.2889" y="3" relative="1" as="geometry">
            <mxPoint as="offset" />
          </mxGeometry>
        </mxCell>
        <mxCell id="lYG3xDOw-mOF29yi0zcu-36" value="" style="verticalLabelPosition=bottom;verticalAlign=top;html=1;shape=process;whiteSpace=wrap;rounded=1;size=0.14;arcSize=6;fillColor=#dae8fc;strokeColor=#6c8ebf;" vertex="1" parent="WIyWlLk6GJQsqaUBKTNV-1">
          <mxGeometry x="270" y="570" width="260" height="60" as="geometry" />
        </mxCell>
        <mxCell id="lYG3xDOw-mOF29yi0zcu-37" value="Enter watering cycle&lt;div&gt;- days, start time, and time&amp;nbsp;&lt;/div&gt;" style="text;html=1;align=center;verticalAlign=middle;whiteSpace=wrap;rounded=0;" vertex="1" parent="WIyWlLk6GJQsqaUBKTNV-1">
          <mxGeometry x="310" y="580" width="180" height="30" as="geometry" />
        </mxCell>
        <mxCell id="lYG3xDOw-mOF29yi0zcu-43" style="edgeStyle=orthogonalEdgeStyle;rounded=0;orthogonalLoop=1;jettySize=auto;html=1;exitX=0.5;exitY=1;exitDx=0;exitDy=0;entryX=0.5;entryY=0;entryDx=0;entryDy=0;entryPerimeter=0;" edge="1" parent="WIyWlLk6GJQsqaUBKTNV-1" source="lYG3xDOw-mOF29yi0zcu-1" target="lYG3xDOw-mOF29yi0zcu-21">
          <mxGeometry relative="1" as="geometry" />
        </mxCell>
        <mxCell id="lYG3xDOw-mOF29yi0zcu-45" value="" style="verticalLabelPosition=bottom;verticalAlign=top;html=1;shape=process;whiteSpace=wrap;rounded=1;size=0.14;arcSize=6;fillColor=#dae8fc;strokeColor=#6c8ebf;" vertex="1" parent="WIyWlLk6GJQsqaUBKTNV-1">
          <mxGeometry x="560" y="710" width="100" height="50" as="geometry" />
        </mxCell>
        <mxCell id="lYG3xDOw-mOF29yi0zcu-46" value="Load Weather Forecast" style="text;html=1;align=center;verticalAlign=middle;whiteSpace=wrap;rounded=0;" vertex="1" parent="WIyWlLk6GJQsqaUBKTNV-1">
          <mxGeometry x="580" y="720" width="60" height="30" as="geometry" />
        </mxCell>
        <mxCell id="lYG3xDOw-mOF29yi0zcu-49" value="if sensorReading &amp;lt; threshold" style="strokeWidth=2;html=1;shape=mxgraph.flowchart.decision;whiteSpace=wrap;fillColor=#dae8fc;strokeColor=#6c8ebf;" vertex="1" parent="WIyWlLk6GJQsqaUBKTNV-1">
          <mxGeometry x="510" y="800" width="200" height="100" as="geometry" />
        </mxCell>
        <mxCell id="lYG3xDOw-mOF29yi0zcu-50" style="edgeStyle=orthogonalEdgeStyle;rounded=0;orthogonalLoop=1;jettySize=auto;html=1;exitX=0.5;exitY=1;exitDx=0;exitDy=0;entryX=0.5;entryY=0;entryDx=0;entryDy=0;entryPerimeter=0;" edge="1" parent="WIyWlLk6GJQsqaUBKTNV-1" source="lYG3xDOw-mOF29yi0zcu-45" target="lYG3xDOw-mOF29yi0zcu-49">
          <mxGeometry relative="1" as="geometry" />
        </mxCell>
        <mxCell id="lYG3xDOw-mOF29yi0zcu-61" style="edgeStyle=orthogonalEdgeStyle;rounded=0;orthogonalLoop=1;jettySize=auto;html=1;exitX=0;exitY=0.5;exitDx=0;exitDy=0;exitPerimeter=0;entryX=0.5;entryY=0;entryDx=0;entryDy=0;" edge="1" parent="WIyWlLk6GJQsqaUBKTNV-1" source="lYG3xDOw-mOF29yi0zcu-55" target="lYG3xDOw-mOF29yi0zcu-60">
          <mxGeometry relative="1" as="geometry" />
        </mxCell>
        <mxCell id="lYG3xDOw-mOF29yi0zcu-63" value="No" style="edgeLabel;html=1;align=center;verticalAlign=middle;resizable=0;points=[];" vertex="1" connectable="0" parent="lYG3xDOw-mOF29yi0zcu-61">
          <mxGeometry x="-0.1965" y="-3" relative="1" as="geometry">
            <mxPoint x="3" as="offset" />
          </mxGeometry>
        </mxCell>
        <mxCell id="lYG3xDOw-mOF29yi0zcu-55" value="rainProbability &amp;gt; 70%" style="strokeWidth=2;html=1;shape=mxgraph.flowchart.decision;whiteSpace=wrap;fillColor=#dae8fc;strokeColor=#6c8ebf;" vertex="1" parent="WIyWlLk6GJQsqaUBKTNV-1">
          <mxGeometry x="360" y="880" width="200" height="100" as="geometry" />
        </mxCell>
        <mxCell id="lYG3xDOw-mOF29yi0zcu-56" style="edgeStyle=orthogonalEdgeStyle;rounded=0;orthogonalLoop=1;jettySize=auto;html=1;exitX=0;exitY=0.5;exitDx=0;exitDy=0;exitPerimeter=0;entryX=0.5;entryY=0;entryDx=0;entryDy=0;entryPerimeter=0;" edge="1" parent="WIyWlLk6GJQsqaUBKTNV-1" source="lYG3xDOw-mOF29yi0zcu-49" target="lYG3xDOw-mOF29yi0zcu-55">
          <mxGeometry relative="1" as="geometry" />
        </mxCell>
        <mxCell id="lYG3xDOw-mOF29yi0zcu-57" value="Yes" style="edgeLabel;html=1;align=center;verticalAlign=middle;resizable=0;points=[];" vertex="1" connectable="0" parent="lYG3xDOw-mOF29yi0zcu-56">
          <mxGeometry x="-0.1895" y="2" relative="1" as="geometry">
            <mxPoint x="3" y="-2" as="offset" />
          </mxGeometry>
        </mxCell>
        <mxCell id="lYG3xDOw-mOF29yi0zcu-60" value="" style="verticalLabelPosition=bottom;verticalAlign=top;html=1;shape=process;whiteSpace=wrap;rounded=1;size=0.14;arcSize=6;fillColor=#dae8fc;strokeColor=#6c8ebf;" vertex="1" parent="WIyWlLk6GJQsqaUBKTNV-1">
          <mxGeometry x="230" y="970" width="100" height="60" as="geometry" />
        </mxCell>
        <mxCell id="lYG3xDOw-mOF29yi0zcu-62" value="Switch on Valve" style="text;html=1;align=center;verticalAlign=middle;whiteSpace=wrap;rounded=0;" vertex="1" parent="WIyWlLk6GJQsqaUBKTNV-1">
          <mxGeometry x="250" y="985" width="60" height="30" as="geometry" />
        </mxCell>
      </root>
    </mxGraphModel>
  </diagram>
</mxfile>
